<?xml version="1.0" standalone="no"?>
<!DOCTYPE svg PUBLIC "-//W3C//DTD SVG 20010904//EN"
 "http://www.w3.org/TR/2001/REC-SVG-20010904/DTD/svg10.dtd">
<svg version="1.0" xmlns="http://www.w3.org/2000/svg"
 width="50.000000pt" height="50.000000pt" viewBox="0 0 50.000000 50.000000"
 preserveAspectRatio="xMidYMid meet">

<g transform="translate(0.000000,50.000000) scale(0.100000,-0.100000)"
fill="white" stroke="white">
<path d="M32 480 c-34 -32 -38 -67 -12 -95 21 -22 21 -24 5 -55 -27 -53 -30
-120 -7 -172 17 -40 31 -52 114 -102 52 -31 106 -56 120 -56 13 0 44 13 69 28
24 16 65 41 91 55 84 48 111 154 63 247 -16 31 -16 33 4 54 28 30 26 58 -5 90
-33 33 -67 33 -92 1 -19 -24 -21 -24 -56 -10 -45 19 -107 19 -152 0 -35 -14
-37 -14 -56 10 -24 30 -57 32 -86 5z m71 -18 c16 -17 15 -20 -17 -51 -31 -30
-34 -31 -50 -16 -21 22 -20 41 4 65 25 25 42 25 63 2z m357 -2 c25 -25 26 -56
3 -69 -14 -8 -25 -3 -50 21 -31 30 -32 33 -16 50 21 23 38 23 63 -2z m-145
-11 c57 -16 139 -100 155 -159 15 -54 8 -115 -17 -148 -10 -14 -42 -37 -71
-53 -28 -15 -64 -37 -78 -48 -36 -28 -71 -26 -119 6 -22 15 -58 37 -79 48 -62
33 -81 66 -80 138 0 69 16 108 66 157 62 63 137 82 223 59z"/>
<path d="M125 275 c-30 -29 -32 -68 -5 -95 27 -27 66 -25 95 5 29 28 33 76 9
99 -23 24 -71 20 -99 -9z m91 -19 c8 -32 -11 -64 -41 -72 -50 -12 -73 38 -35
76 29 29 68 26 76 -4z"/>
<path d="M174 259 c-10 -17 13 -36 27 -22 12 12 4 33 -11 33 -5 0 -12 -5 -16
-11z"/>
<path d="M276 284 c-24 -23 -20 -71 9 -99 29 -30 68 -32 95 -5 27 27 25 66 -5
95 -28 29 -76 33 -99 9z m84 -24 c24 -24 26 -53 4 -70 -35 -30 -98 28 -81 74
9 22 53 20 77 -4z"/>
<path d="M294 259 c-10 -17 13 -36 27 -22 12 12 4 33 -11 33 -5 0 -12 -5 -16
-11z"/>
<path d="M205 129 c-9 -14 23 -49 45 -49 22 0 54 35 45 49 -3 6 -24 11 -45 11
-21 0 -42 -5 -45 -11z m57 -21 c-9 -9 -15 -9 -24 0 -9 9 -7 12 12 12 19 0 21
-3 12 -12z"/>
</g>
</svg>
